<svg width="16" height="20" viewBox="0 0 16 20" fill="none" xmlns="http://www.w3.org/2000/svg">
<path fill-rule="evenodd" clip-rule="evenodd" d="M1.8689 19.6189L7.3733 16.5C7.3733 16.5 7.7875 16.2632 8.0414 16.2632C8.2952 16.2632 8.7094 16.5004 8.7094 16.5004L14.1954 19.6181C14.1954 19.6181 14.7611 20 15.0466 20C15.5294 20 16 19.6139 16 18.7512L16 1.86623C16 0.854632 15.1869 0 14.1849 0H1.8818C0.8798 0 0 0.854632 0 1.86623L5.08626e-06 18.7511C5.08626e-06 19.0897 0.0909051 19.3719 0.237405 19.5899C0.412605 19.8506 0.694705 20 0.997205 19.9999C1.28321 19.9999 1.8689 19.6189 1.8689 19.6189ZM14.2 17.5504L14.2 1.86623C14.2 1.85578 14.1981 1.84582 14.1937 1.83524C14.1889 1.82359 14.1816 1.81267 14.1735 1.80432C14.1719 1.8026 14.169 1.8 14.169 1.8H1.88456C1.88456 1.8 1.87994 1.8013 1.8753 1.80329C1.86272 1.80869 1.84531 1.81937 1.82845 1.83598C1.81183 1.85235 1.80328 1.86704 1.8 1.87437L1.8 17.5891L6.48033 14.9371L6.48162 14.9364L6.48349 14.9353L6.48773 14.9329L6.49822 14.927L6.5269 14.9111C6.54924 14.8989 6.57843 14.8832 6.61317 14.8652C6.68117 14.8299 6.7776 14.782 6.89054 14.7326L6.89308 14.7315C7.03513 14.6693 7.50603 14.4632 8.0414 14.4632C8.57735 14.4632 9.04865 14.6699 9.19065 14.7321L9.1933 14.7333C9.30625 14.7828 9.4027 14.8308 9.47071 14.8661C9.50545 14.8842 9.53464 14.8999 9.55698 14.9122L9.58567 14.9281L9.59615 14.934L9.6004 14.9364L9.60314 14.938L14.2 17.5504Z" fill="#2D2D2D"/>
</svg>
